<?xml version="1.0" encoding="iso-8859-1"?>
<!-- Generator: Adobe Illustrator 19.0.0, SVG Export Plug-In . SVG Version: 6.00 Build 0)  -->
<svg version="1.1" id="Capa_1" xmlns="http://www.w3.org/2000/svg" xmlns:xlink="http://www.w3.org/1999/xlink" x="0px" y="0px"
	 viewBox="0 0 508 508" style="enable-background:new 0 0 508 508;" xml:space="preserve">
<g>
	<g>
		<path d="M122.9,0C86.8,0,57.4,29,57.4,64.6c0,36.1,30,66.5,65.5,66.5s65.5-30.4,65.5-66.5C188.5,29,159,0,122.9,0z M122.9,114.7
			c-26.6,0-49.2-22.9-49.2-50.1c0-26.6,22.1-48.2,49.2-48.2c27.1,0,49.2,21.6,49.2,48.2C172.1,91.8,149.6,114.7,122.9,114.7z"/>
	</g>
</g>
<g>
	<g>
		<path d="M508,254V90.1H262.2V254h57.4v16.4h-90.1v-73.7c0-53.3-52.1-70.6-52.1-70.6s-25.7,21.4-54.4,21.4
			c-32,0-54.4-21.4-54.4-21.4s-52.1,16.5-52.1,70.6v73.7H0v221.2h32.8V508h16.4v-16.4h409.7V508h16.4v-16.4H508V270.4h-57.4V254H508
			z M32.8,196.6c0-22.2,13.1-42.5,33-51.9c16.8,12.3,36.9,19.1,57.1,19.1s40.3-6.7,57.1-19.1c19.9,9.4,33,29.7,33,51.9v73.7h-16.4
			v-73.7h-16.4v73.7H65.5v-73.7H49.2v73.7H32.8V196.6z M491.6,475.2H16.4V352.3h475.2V475.2z M491.6,286.8V336H16.4v-49.2H491.6z
			 M335.9,270.4V254h98.3v16.4H335.9z M278.6,237.6V106.5h213v131.1H278.6z"/>
	</g>
</g>
<g>
</g>
<g>
</g>
<g>
</g>
<g>
</g>
<g>
</g>
<g>
</g>
<g>
</g>
<g>
</g>
<g>
</g>
<g>
</g>
<g>
</g>
<g>
</g>
<g>
</g>
<g>
</g>
<g>
</g>
</svg>
